<svg viewBox="0 0 940 820" xmlns="http://www.w3.org/2000/svg" font-family="Inter, system-ui, -apple-system, Segoe UI, Roboto, Helvetica, Arial, sans-serif">
  <defs>
    <marker id="ar" viewBox="0 0 10 10" refX="8" refY="5" markerWidth="7" markerHeight="7" orient="auto-start-reverse">
      <path d="M2 1L8 5L2 9" fill="none" stroke="#9ca3af" stroke-width="1.6" stroke-linecap="round" stroke-linejoin="round"/>
    </marker>
    <marker id="arb" viewBox="0 0 10 10" refX="8" refY="5" markerWidth="7" markerHeight="7" orient="auto-start-reverse">
      <path d="M2 1L8 5L2 9" fill="none" stroke="#3b82f6" stroke-width="1.6" stroke-linecap="round" stroke-linejoin="round"/>
    </marker>
    <style>
      .title{font-size:21px;font-weight:700;fill:#111827}
      .sub{font-size:13px;font-weight:400;fill:#6b7280}
      .bt{font-size:14px;font-weight:600;fill:#111827}
      .desc{font-size:11.5px;font-weight:400;fill:#4b5563}
      .chip{font-size:12px;font-weight:600;fill:#111827}
      .lbl{font-size:11px;font-weight:600;fill:#6b7280}
      .panel{font-size:12px;font-weight:700;fill:#64748b}
      .leg{font-size:11.5px;font-weight:500;fill:#374151}
      .money{font-size:12px;font-weight:600}
    </style>
  </defs>

  <text x="470" y="34" text-anchor="middle" class="title">MoodMeal &#8212; current architecture</text>
  <text x="470" y="56" text-anchor="middle" class="sub">One Hermes agent running a self-funding food business &#183; chat + live business console</text>

  <!-- Surfaces -->
  <rect x="155" y="78" width="280" height="44" rx="10" fill="#f3f4f6" stroke="#d1d5db" stroke-width="1.5"/>
  <text x="295" y="105" text-anchor="middle" class="bt">&#128421; Web app: chat + console (demo)</text>
  <rect x="500" y="78" width="285" height="44" rx="10" fill="#f3f4f6" stroke="#d1d5db" stroke-width="1.5"/>
  <text x="642" y="105" text-anchor="middle" class="bt">&#128172; WeChat / Telegram (real users)</text>

  <!-- pipeline boxes (cx 295, x 145 w 300) -->
  <rect x="145" y="150" width="300" height="52" rx="11" fill="#f3f4f6" stroke="#d1d5db" stroke-width="1.5"/>
  <text x="295" y="172" text-anchor="middle" class="bt">&#9312; User: "capek abis ujian &#183; ~&#165;20"</text>
  <text x="295" y="190" text-anchor="middle" class="desc">free-text mood + budget</text>

  <rect x="145" y="224" width="300" height="54" rx="11" fill="#e2e8f0" stroke="#64748b" stroke-width="1.5"/>
  <text x="295" y="246" text-anchor="middle" class="bt">&#9313; Hermes orchestrator &#8212; plans route</text>
  <text x="295" y="264" text-anchor="middle" class="lbl">memory + session_search (built-in)</text>

  <rect x="145" y="300" width="300" height="92" rx="11" fill="#dcfce7" stroke="#22c55e" stroke-width="1.5"/>
  <text x="295" y="321" text-anchor="middle" class="bt">&#9314; delegate_task &#8594; 3 subagents</text>
  <rect x="153" y="332" width="92" height="28" rx="7" fill="#ffffff" stroke="#22c55e" stroke-width="1.2"/>
  <text x="199" y="350" text-anchor="middle" class="chip">Mood</text>
  <rect x="249" y="332" width="92" height="28" rx="7" fill="#ffffff" stroke="#8b5cf6" stroke-width="1.4"/>
  <text x="295" y="350" text-anchor="middle" class="chip">Scout</text>
  <rect x="345" y="332" width="92" height="28" rx="7" fill="#ffffff" stroke="#22c55e" stroke-width="1.2"/>
  <text x="391" y="350" text-anchor="middle" class="chip">Health</text>
  <text x="295" y="380" text-anchor="middle" class="lbl">reasoned on Nemotron 3 Ultra &#183; NVIDIA</text>

  <rect x="145" y="414" width="300" height="54" rx="11" fill="#e2e8f0" stroke="#64748b" stroke-width="1.5"/>
  <text x="295" y="436" text-anchor="middle" class="bt">&#9315; clarify &#8594; 2 options, user Approves</text>
  <text x="295" y="454" text-anchor="middle" class="lbl">picks B &#183; &#165;16 (built-in consent)</text>

  <rect x="145" y="490" width="300" height="56" rx="11" fill="#fef3c7" stroke="#f59e0b" stroke-width="1.5"/>
  <text x="295" y="513" text-anchor="middle" class="bt">&#9316; NemoClaw gate</text>
  <text x="295" y="531" text-anchor="middle" class="desc" fill="#b45309">&#165;16 &#8804; &#165;20 cap? &#9989;  (no charge unless PASS)</text>

  <rect x="145" y="568" width="300" height="56" rx="11" fill="#dbeafe" stroke="#3b82f6" stroke-width="1.5"/>
  <text x="295" y="591" text-anchor="middle" class="bt">&#9317; Stripe &#8212; charge &#165;16</text>
  <text x="295" y="609" text-anchor="middle" class="desc" fill="#1d4ed8">hermes-webhook confirms payment</text>

  <rect x="145" y="646" width="300" height="60" rx="11" fill="#e2e8f0" stroke="#64748b" stroke-width="1.5"/>
  <text x="295" y="668" text-anchor="middle" class="bt">&#9318; Receipt in chat + memory saved</text>
  <text x="295" y="686" text-anchor="middle" class="lbl">next time &#8594; smarter</text>

  <!-- main arrows -->
  <line x1="295" y1="122" x2="295" y2="148" stroke="#9ca3af" stroke-width="2" marker-end="url(#ar)"/>
  <line x1="642" y1="122" x2="320" y2="148" stroke="#9ca3af" stroke-width="1.6" stroke-dasharray="5 4" marker-end="url(#ar)"/>
  <line x1="295" y1="202" x2="295" y2="222" stroke="#9ca3af" stroke-width="2" marker-end="url(#ar)"/>
  <line x1="295" y1="278" x2="295" y2="298" stroke="#9ca3af" stroke-width="2" marker-end="url(#ar)"/>
  <line x1="295" y1="392" x2="295" y2="412" stroke="#9ca3af" stroke-width="2" marker-end="url(#ar)"/>
  <line x1="295" y1="468" x2="295" y2="488" stroke="#9ca3af" stroke-width="2" marker-end="url(#ar)"/>
  <line x1="295" y1="546" x2="295" y2="566" stroke="#9ca3af" stroke-width="2" marker-end="url(#ar)"/>
  <line x1="295" y1="624" x2="295" y2="644" stroke="#9ca3af" stroke-width="2" marker-end="url(#ar)"/>

  <!-- skill bracket -->
  <path d="M468,300 H478 V624 H468" fill="none" stroke="#8b5cf6" stroke-width="1.6" stroke-dasharray="5 4"/>
  <line x1="445" y1="346" x2="468" y2="346" stroke="#8b5cf6" stroke-width="1.2" stroke-dasharray="4 3"/>
  <line x1="445" y1="518" x2="468" y2="518" stroke="#8b5cf6" stroke-width="1.2" stroke-dasharray="4 3"/>
  <line x1="445" y1="596" x2="468" y2="596" stroke="#8b5cf6" stroke-width="1.2" stroke-dasharray="4 3"/>
  <text x="496" y="462" text-anchor="middle" class="lbl" fill="#7c3aed" transform="rotate(90 496 462)">&#129513; MoodMeal skill &#8212; you build (search_menu &#183; check_spend_limit &#183; charge_wallet &#183; topup)</text>

  <!-- Economy panel -->
  <rect x="540" y="224" width="360" height="400" rx="16" fill="#f8fafc" stroke="#cbd5e1" stroke-width="1.5" stroke-dasharray="7 5"/>
  <text x="720" y="247" text-anchor="middle" class="panel">Agent economy &#8212; self-funding via Stripe</text>

  <rect x="560" y="262" width="320" height="80" rx="11" fill="#dcfce7" stroke="#22c55e" stroke-width="1.5"/>
  <text x="576" y="284" class="bt">&#128181; EARN ($ IN)</text>
  <text x="576" y="306" class="money" fill="#15803d">subscription&#160;&#160;&#160;&#160;+&#165;120</text>
  <text x="576" y="326" class="money" fill="#15803d">per-order fee&#160;&#160;&#160;+&#165;18</text>

  <rect x="560" y="356" width="320" height="98" rx="11" fill="#fff5f5" stroke="#f87171" stroke-width="1.5"/>
  <text x="576" y="378" class="bt">&#128184; SPEND ($ OUT)</text>
  <text x="576" y="400" class="money" fill="#b91c1c">food orders&#160;&#160;&#160;&#160;&#8722;&#165;64</text>
  <text x="576" y="420" class="money" fill="#b91c1c">Nemotron / LLM&#160;&#160;&#8722;&#165;9</text>
  <text x="576" y="440" class="money" fill="#b91c1c">API / VPS&#160;&#160;&#160;&#160;&#160;&#160;&#8722;&#165;12</text>

  <rect x="560" y="468" width="320" height="58" rx="11" fill="#ecfdf5" stroke="#22c55e" stroke-width="2"/>
  <text x="720" y="492" text-anchor="middle" class="bt" fill="#065f46">&#128200; NET +&#165;53 / week &#183; self-funding &#9989;</text>
  <text x="720" y="512" text-anchor="middle" class="lbl" fill="#047857">revenue covers its own compute &#8212; the loop closes</text>

  <text x="720" y="552" text-anchor="middle" class="lbl">&#128737; NemoClaw: 0 breaches &#183; last &#165;16 / &#165;20</text>
  <text x="720" y="574" text-anchor="middle" class="lbl">streams live to the console via hermes-api-server</text>
  <text x="720" y="596" text-anchor="middle" class="lbl">earn + spend both flow through Stripe</text>

  <!-- stripe -> economy arrow -->
  <line x1="445" y1="596" x2="538" y2="470" stroke="#3b82f6" stroke-width="1.8" stroke-dasharray="5 4" marker-end="url(#arb)"/>

  <!-- legend -->
  <rect x="60" y="734" width="14" height="14" rx="3" fill="#e2e8f0" stroke="#64748b"/>
  <text x="80" y="745" class="leg">Hermes built-in</text>
  <rect x="190" y="734" width="14" height="14" rx="3" fill="#dcfce7" stroke="#22c55e"/>
  <text x="210" y="745" class="leg">NVIDIA Nemotron</text>
  <rect x="335" y="734" width="14" height="14" rx="3" fill="#fef3c7" stroke="#f59e0b"/>
  <text x="355" y="745" class="leg">NemoClaw guard</text>
  <rect x="475" y="734" width="14" height="14" rx="3" fill="#dbeafe" stroke="#3b82f6"/>
  <text x="495" y="745" class="leg">Stripe</text>
  <rect x="560" y="734" width="14" height="14" rx="3" fill="#ffffff" stroke="#8b5cf6" stroke-width="1.4"/>
  <text x="580" y="745" class="leg">&#129513; MoodMeal skill (you build)</text>

  <text x="470" y="784" text-anchor="middle" class="sub">You build: 1 SKILL.md + 4 Python tools + a thin web console. Everything else &#8212; chat, memory, subagents, consent, webhooks &#8212; is Hermes.</text>
</svg>
